<svg id="visual" viewBox="0 0 900 600" width="900" height="600" xmlns="http://www.w3.org/2000/svg" xmlns:xlink="http://www.w3.org/1999/xlink" version="1.1"><rect x="0" y="0" width="900" height="600" fill="#000000"></rect><g transform="translate(883.6798456465417 -29.975214767680413)"><path d="M119.9 -149.7C166.4 -131.3 222.5 -110.9 259.3 -67.7C296.1 -24.5 313.5 41.5 293.4 92.9C273.3 144.2 215.7 180.9 160.6 225.5C105.4 270.1 52.7 322.5 6.6 313.5C-39.6 304.5 -79.2 233.9 -122.4 185.5C-165.7 137.1 -212.7 110.7 -239.6 68.3C-266.6 25.9 -273.6 -32.7 -266.8 -96.9C-259.9 -161.1 -239.3 -231 -192.5 -249.3C-145.8 -267.6 -72.9 -234.3 -18.1 -209.4C36.7 -184.6 73.5 -168.1 119.9 -149.7" fill="#C47AFF"></path></g></svg>