<svg id="visual" viewBox="0 0 900 600" width="900" height="600" xmlns="http://www.w3.org/2000/svg" xmlns:xlink="http://www.w3.org/1999/xlink" version="1.1"><rect x="0" y="0" width="900" height="600" fill="#000000"></rect><path d="M0 451L21.5 453.2C43 455.3 86 459.7 128.8 468.5C171.7 477.3 214.3 490.7 257.2 495.5C300 500.3 343 496.7 385.8 489.7C428.7 482.7 471.3 472.3 514.2 467.3C557 462.3 600 462.7 642.8 466.8C685.7 471 728.3 479 771.2 485.5C814 492 857 497 878.5 499.5L900 502L900 601L878.5 601C857 601 814 601 771.2 601C728.3 601 685.7 601 642.8 601C600 601 557 601 514.2 601C471.3 601 428.7 601 385.8 601C343 601 300 601 257.2 601C214.3 601 171.7 601 128.8 601C86 601 43 601 21.5 601L0 601Z" fill="#f965b9"></path><path d="M0 490L21.5 492.5C43 495 86 500 128.8 503.7C171.7 507.3 214.3 509.7 257.2 509.3C300 509 343 506 385.8 504.8C428.7 503.7 471.3 504.3 514.2 510.7C557 517 600 529 642.8 533.5C685.7 538 728.3 535 771.2 527.2C814 519.3 857 506.7 878.5 500.3L900 494L900 601L878.5 601C857 601 814 601 771.2 601C728.3 601 685.7 601 642.8 601C600 601 557 601 514.2 601C471.3 601 428.7 601 385.8 601C343 601 300 601 257.2 601C214.3 601 171.7 601 128.8 601C86 601 43 601 21.5 601L0 601Z" fill="#e76cdc"></path><path d="M0 573L21.5 573.3C43 573.7 86 574.3 128.8 570.3C171.7 566.3 214.3 557.7 257.2 554.2C300 550.7 343 552.3 385.8 550C428.7 547.7 471.3 541.3 514.2 542.7C557 544 600 553 642.8 559.3C685.7 565.7 728.3 569.3 771.2 566.8C814 564.3 857 555.7 878.5 551.3L900 547L900 601L878.5 601C857 601 814 601 771.2 601C728.3 601 685.7 601 642.8 601C600 601 557 601 514.2 601C471.3 601 428.7 601 385.8 601C343 601 300 601 257.2 601C214.3 601 171.7 601 128.8 601C86 601 43 601 21.5 601L0 601Z" fill="#c47aff"></path></svg>