<svg id="visual" viewBox="0 0 900 600" width="900" height="600" xmlns="http://www.w3.org/2000/svg" xmlns:xlink="http://www.w3.org/1999/xlink" version="1.1"><rect x="0" y="0" width="900" height="600" fill="#000000"></rect><g transform="translate(884.1111589775071 630.2006360158334)"><path d="M152.7 -209.5C212.1 -167 284.4 -141.4 306.3 -94.7C328.1 -47.9 299.6 20.1 264 72.3C228.5 124.5 186 161 140.8 184.3C95.6 207.6 47.8 217.8 -8.7 229.8C-65.2 241.8 -130.5 255.6 -174.1 231.8C-217.7 207.9 -239.6 146.5 -258.8 84.7C-278 23 -294.5 -39 -269.3 -78.5C-244.1 -117.9 -177.1 -134.8 -125.3 -179.8C-73.5 -224.8 -36.7 -297.9 4.9 -304.7C46.6 -311.5 93.3 -252 152.7 -209.5" fill="#C47AFF"></path></g></svg>