<svg id="visual" viewBox="0 0 900 600" width="900" height="600" xmlns="http://www.w3.org/2000/svg" xmlns:xlink="http://www.w3.org/1999/xlink" version="1.1"><rect x="0" y="0" width="900" height="600" fill="#000"></rect><defs><linearGradient id="grad1_0" x1="33.3%" y1="0%" x2="100%" y2="100%"><stop offset="20%" stop-color="#000000" stop-opacity="1"></stop><stop offset="80%" stop-color="#000000" stop-opacity="1"></stop></linearGradient></defs><defs><linearGradient id="grad2_0" x1="0%" y1="0%" x2="66.7%" y2="100%"><stop offset="20%" stop-color="#000000" stop-opacity="1"></stop><stop offset="80%" stop-color="#000000" stop-opacity="1"></stop></linearGradient></defs><g transform="translate(900, 0)"><path d="M0 189.3C-17.8 182.7 -35.5 176.2 -55.9 172.1C-76.3 168.1 -99.4 166.6 -111.3 153.1C-123.1 139.6 -123.7 114.1 -133.5 97C-143.3 79.8 -162.3 71 -173.1 56.2C-183.9 41.5 -186.6 20.7 -189.3 0L0 0Z" fill="#C47AFF"></path></g><g transform="translate(0, 600)"><path d="M0 -189.3C20.5 -184.2 41 -179.2 53.5 -164.5C65.9 -149.9 70.3 -125.7 83.5 -114.9C96.7 -104.1 118.7 -106.8 137.5 -99.9C156.3 -93.1 171.9 -76.7 180 -58.5C188.1 -40.3 188.7 -20.1 189.3 0L0 0Z" fill="#C47AFF"></path></g></svg>