<svg id="visual" viewBox="0 0 900 600" width="900" height="600" xmlns="http://www.w3.org/2000/svg" xmlns:xlink="http://www.w3.org/1999/xlink" version="1.1"><rect x="0" y="0" width="900" height="600" fill="#000000"></rect><path d="M0 490L21.5 491.7C43 493.3 86 496.7 128.8 495.5C171.7 494.3 214.3 488.7 257.2 482.7C300 476.7 343 470.3 385.8 468.5C428.7 466.7 471.3 469.3 514.2 472C557 474.7 600 477.3 642.8 480.5C685.7 483.7 728.3 487.3 771.2 482.7C814 478 857 465 878.5 458.5L900 452L900 601L878.5 601C857 601 814 601 771.2 601C728.3 601 685.7 601 642.8 601C600 601 557 601 514.2 601C471.3 601 428.7 601 385.8 601C343 601 300 601 257.2 601C214.3 601 171.7 601 128.8 601C86 601 43 601 21.5 601L0 601Z" fill="#f965b9"></path><path d="M0 539L21.5 537.8C43 536.7 86 534.3 128.8 531.2C171.7 528 214.3 524 257.2 518.2C300 512.3 343 504.7 385.8 508C428.7 511.3 471.3 525.7 514.2 526.5C557 527.3 600 514.7 642.8 513.7C685.7 512.7 728.3 523.3 771.2 529.3C814 535.3 857 536.7 878.5 537.3L900 538L900 601L878.5 601C857 601 814 601 771.2 601C728.3 601 685.7 601 642.8 601C600 601 557 601 514.2 601C471.3 601 428.7 601 385.8 601C343 601 300 601 257.2 601C214.3 601 171.7 601 128.8 601C86 601 43 601 21.5 601L0 601Z" fill="#e76cdc"></path><path d="M0 573L21.5 569.7C43 566.3 86 559.7 128.8 553.2C171.7 546.7 214.3 540.3 257.2 541.5C300 542.7 343 551.3 385.8 556.8C428.7 562.3 471.3 564.7 514.2 564C557 563.3 600 559.7 642.8 558C685.7 556.3 728.3 556.7 771.2 556.2C814 555.7 857 554.3 878.5 553.7L900 553L900 601L878.5 601C857 601 814 601 771.2 601C728.3 601 685.7 601 642.8 601C600 601 557 601 514.2 601C471.3 601 428.7 601 385.8 601C343 601 300 601 257.2 601C214.3 601 171.7 601 128.8 601C86 601 43 601 21.5 601L0 601Z" fill="#c47aff"></path></svg>