<svg id="visual" viewBox="0 0 900 600" width="900" height="600" xmlns="http://www.w3.org/2000/svg" xmlns:xlink="http://www.w3.org/1999/xlink" version="1.1"><rect x="0" y="0" width="900" height="600" fill="#000"></rect><defs><linearGradient id="grad1_0" x1="33.3%" y1="100%" x2="100%" y2="0%"><stop offset="20%" stop-color="#000000" stop-opacity="1"></stop><stop offset="80%" stop-color="#000000" stop-opacity="1"></stop></linearGradient></defs><defs><linearGradient id="grad2_0" x1="0%" y1="100%" x2="66.7%" y2="0%"><stop offset="20%" stop-color="#000000" stop-opacity="1"></stop><stop offset="80%" stop-color="#000000" stop-opacity="1"></stop></linearGradient></defs><g transform="translate(900, 600)"><path d="M-270.4 0C-249.1 -21.3 -227.7 -42.7 -223.5 -72.6C-219.3 -102.6 -232.3 -141.1 -217.6 -158.1C-203 -175.2 -160.7 -170.7 -135.8 -186.9C-110.9 -203.1 -103.3 -239.8 -83.6 -257.2C-63.8 -274.5 -31.9 -272.5 0 -270.4L0 0Z" fill="#C47AFF"></path></g><g transform="translate(0, 0)"><path d="M270.4 0C269.5 29.3 268.6 58.5 257.2 83.6C245.8 108.6 223.8 129.5 203.9 148.1C183.9 166.8 166.1 183.2 146.9 202.3C127.8 221.3 107.5 243.1 82.8 254.9C58.1 266.7 29.1 268.6 0 270.4L0 0Z" fill="#C47AFF"></path></g></svg>