<svg id="visual" viewBox="0 0 900 600" width="900" height="600" xmlns="http://www.w3.org/2000/svg" xmlns:xlink="http://www.w3.org/1999/xlink" version="1.1"><rect x="0" y="0" width="900" height="600" fill="#000"></rect><defs><linearGradient id="grad1_0" x1="33.3%" y1="0%" x2="100%" y2="100%"><stop offset="20%" stop-color="#000000" stop-opacity="1"></stop><stop offset="80%" stop-color="#000000" stop-opacity="1"></stop></linearGradient></defs><defs><linearGradient id="grad2_0" x1="0%" y1="0%" x2="66.7%" y2="100%"><stop offset="20%" stop-color="#000000" stop-opacity="1"></stop><stop offset="80%" stop-color="#000000" stop-opacity="1"></stop></linearGradient></defs><g transform="translate(900, 0)"><path d="M0 270.4C-31.1 257.8 -62.2 245.2 -97.2 234.7C-132.2 224.1 -171.1 215.6 -191.2 191.2C-211.3 166.9 -212.6 126.7 -222.7 92.2C-232.7 57.7 -251.6 28.9 -270.4 0L0 0Z" fill="#C47AFF"></path></g><g transform="translate(0, 600)"><path d="M0 -270.4C35 -266.5 70.1 -262.5 103.5 -249.8C136.9 -237.2 168.6 -215.8 188.1 -188.1C207.5 -160.3 214.7 -126.2 226.4 -93.8C238 -61.3 254.2 -30.7 270.4 0L0 0Z" fill="#C47AFF"></path></g></svg>